<?xml version="1.0" encoding="UTF-8"?>
<!DOCTYPE svg PUBLIC "-//W3C//DTD SVG 1.1//EN" "http://www.w3.org/Graphics/SVG/1.1/DTD/svg11.dtd">
<!-- Creator: CorelDRAW 2020 (64-Bit) -->
<svg xmlns="http://www.w3.org/2000/svg" xml:space="preserve" width="384.439mm" height="166.687mm" version="1.1" style="shape-rendering:geometricPrecision; text-rendering:geometricPrecision; image-rendering:optimizeQuality; fill-rule:evenodd; clip-rule:evenodd"
viewBox="0 0 16325.28 7078.41"
 xmlns:xlink="http://www.w3.org/1999/xlink"
 xmlns:xodm="http://www.corel.com/coreldraw/odm/2003">
 <defs>
  <style type="text/css">
   <![CDATA[
    .str0 {stroke:#0EA5E9;stroke-width:11.24;stroke-miterlimit:22.9256}
    .fil3 {fill:none;fill-rule:nonzero}
    .fil1 {fill:#0E1B31;fill-rule:nonzero}
    .fil2 {fill:#0EA5E9;fill-rule:nonzero}
    .fil0 {fill:url(#id13);fill-rule:nonzero}
   ]]>
  </style>
   <clipPath id="id0" style="clip-rule:nonzero">
    <path d="M-0 7078.41l16325.28 0 0 -7078.41 -16325.28 0 0 7078.41z"/>
   </clipPath>
     <mask id="id1">
  <linearGradient id="id2" gradientUnits="userSpaceOnUse" x1="8993.76" y1="10.85" x2="8993.76" y2="1080.41">
   <stop offset="0" style="stop-opacity:1; stop-color:white"/>
   <stop offset="0.709804" style="stop-opacity:0; stop-color:white"/>
   <stop offset="1" style="stop-opacity:0; stop-color:white"/>
  </linearGradient>
      <rect style="fill:url(#id2)" x="8522.18" y="5.23" width="943.79" height="1080.8"/>
     </mask>
     <mask id="id3">
  <linearGradient id="id4" gradientUnits="userSpaceOnUse" x1="4330.99" y1="1609.1" x2="4330.99" y2="2678.67">
   <stop offset="0" style="stop-opacity:1; stop-color:white"/>
   <stop offset="0.709804" style="stop-opacity:0; stop-color:white"/>
   <stop offset="1" style="stop-opacity:0; stop-color:white"/>
  </linearGradient>
      <rect style="fill:url(#id4)" x="3859.42" y="1603.48" width="943.79" height="1080.81"/>
     </mask>
     <mask id="id5">
  <linearGradient id="id6" gradientUnits="userSpaceOnUse" x1="12738.95" y1="1594.12" x2="12738.95" y2="2663.7">
   <stop offset="0" style="stop-opacity:1; stop-color:white"/>
   <stop offset="0.709804" style="stop-opacity:0; stop-color:white"/>
   <stop offset="1" style="stop-opacity:0; stop-color:white"/>
  </linearGradient>
      <rect style="fill:url(#id6)" x="12267.37" y="1588.5" width="943.79" height="1080.81"/>
     </mask>
     <mask id="id7">
  <linearGradient id="id8" gradientUnits="userSpaceOnUse" x1="6196.1" y1="3207.36" x2="6196.1" y2="4276.93">
   <stop offset="0" style="stop-opacity:1; stop-color:white"/>
   <stop offset="0.709804" style="stop-opacity:0; stop-color:white"/>
   <stop offset="1" style="stop-opacity:0; stop-color:white"/>
  </linearGradient>
      <rect style="fill:url(#id8)" x="5724.52" y="3201.74" width="943.79" height="1080.81"/>
     </mask>
     <mask id="id9">
  <linearGradient id="id10" gradientUnits="userSpaceOnUse" x1="9460.03" y1="4006.49" x2="9460.03" y2="5076.07">
   <stop offset="0" style="stop-opacity:1; stop-color:white"/>
   <stop offset="0.709804" style="stop-opacity:0; stop-color:white"/>
   <stop offset="1" style="stop-opacity:0; stop-color:white"/>
  </linearGradient>
      <rect style="fill:url(#id10)" x="8988.46" y="4000.87" width="943.79" height="1080.81"/>
     </mask>
     <mask id="id11">
  <linearGradient id="id12" gradientUnits="userSpaceOnUse" x1="10392.58" y1="4006.49" x2="10392.58" y2="5076.07">
   <stop offset="0" style="stop-opacity:1; stop-color:white"/>
   <stop offset="0.709804" style="stop-opacity:0; stop-color:white"/>
   <stop offset="1" style="stop-opacity:0; stop-color:white"/>
  </linearGradient>
      <rect style="fill:url(#id12)" x="9921.01" y="4000.87" width="943.79" height="1080.81"/>
     </mask>
  <linearGradient id="id13" gradientUnits="userSpaceOnUse" x1="8157.03" y1="0" x2="8157.03" y2="7078.41">
   <stop offset="0" style="stop-opacity:1; stop-color:#2563EB"/>
   <stop offset="0.709804" style="stop-opacity:0; stop-color:#6246EC"/>
   <stop offset="1" style="stop-opacity:0; stop-color:#7C3AED"/>
  </linearGradient>
 </defs>
 <g id="Layer_x0020_1">
  <metadata id="CorelCorpID_0Corel-Layer"/>
  <polygon class="fil0" points="-0,7078.41 16325.28,7078.41 16325.28,0 -0,0 "/>
  <g style="clip-path:url(#id0)">
   <g id="_2344218387920">
    <path id="1" class="fil1 str0" d="M587.04 14.62c8.7,-5.03 19.42,-5.03 28.12,0l438.19 253.33c8.68,5.02 14.03,14.29 14.03,24.32l0 506.74c0,10.03 -5.35,19.3 -14.03,24.32l-438.19 253.33c-8.7,5.03 -19.42,5.03 -28.12,0l-438.19 -253.33c-8.68,-5.02 -14.03,-14.29 -14.03,-24.32l0 -506.74c0,-10.03 5.35,-19.3 14.03,-24.32l438.19 -253.33z"/>
    <path class="fil1 str0" d="M1519.59 14.62c8.7,-5.03 19.42,-5.03 28.11,0l438.19 253.33c8.68,5.02 14.03,14.29 14.03,24.32l0 506.74c0,10.03 -5.35,19.3 -14.03,24.32l-438.19 253.33c-8.7,5.03 -19.42,5.03 -28.11,0l-438.19 -253.33c-8.68,-5.02 -14.03,-14.29 -14.03,-24.32l0 -506.74c0,-10.03 5.35,-19.3 14.03,-24.32l438.19 -253.33z"/>
    <path class="fil1 str0" d="M2452.15 14.62c8.69,-5.03 19.42,-5.03 28.11,0l438.19 253.33c8.68,5.02 14.03,14.29 14.03,24.32l0 506.74c0,10.03 -5.35,19.3 -14.03,24.32l-438.19 253.33c-8.69,5.03 -19.42,5.03 -28.11,0l-438.19 -253.33c-8.68,-5.02 -14.03,-14.29 -14.03,-24.32l0 -506.74c0,-10.03 5.35,-19.3 14.03,-24.32l438.19 -253.33z"/>
    <path class="fil1 str0" d="M3384.7 14.62c8.7,-5.03 19.42,-5.03 28.11,0l438.19 253.33c8.68,5.02 14.03,14.29 14.03,24.32l0 506.74c0,10.03 -5.35,19.3 -14.03,24.32l-438.19 253.33c-8.7,5.03 -19.42,5.03 -28.11,0l-438.19 -253.33c-8.68,-5.02 -14.03,-14.29 -14.03,-24.32l0 -506.74c0,-10.03 5.35,-19.3 14.03,-24.32l438.19 -253.33z"/>
    <path class="fil1 str0" d="M4317.26 14.62c8.7,-5.03 19.42,-5.03 28.11,0l438.19 253.33c8.68,5.02 14.03,14.29 14.03,24.32l0 506.74c0,10.03 -5.35,19.3 -14.03,24.32l-438.19 253.33c-8.7,5.03 -19.42,5.03 -28.11,0l-438.19 -253.33c-8.68,-5.02 -14.03,-14.29 -14.03,-24.32l0 -506.74c0,-10.03 5.35,-19.3 14.03,-24.32l438.19 -253.33z"/>
    <path class="fil1 str0" d="M5249.81 14.62c8.7,-5.03 19.42,-5.03 28.11,0l438.19 253.33c8.69,5.02 14.03,14.29 14.03,24.32l0 506.74c0,10.03 -5.35,19.3 -14.03,24.32l-438.19 253.33c-8.7,5.03 -19.42,5.03 -28.11,0l-438.19 -253.33c-8.69,-5.02 -14.03,-14.29 -14.03,-24.32l0 -506.74c0,-10.03 5.35,-19.3 14.03,-24.32l438.19 -253.33z"/>
    <path class="fil1 str0" d="M6182.36 14.62c8.7,-5.03 19.42,-5.03 28.11,0l438.19 253.33c8.68,5.02 14.03,14.29 14.03,24.32l0 506.74c0,10.03 -5.35,19.3 -14.03,24.32l-438.19 253.33c-8.7,5.03 -19.42,5.03 -28.11,0l-438.19 -253.33c-8.69,-5.02 -14.03,-14.29 -14.03,-24.32l0 -506.74c0,-10.03 5.35,-19.3 14.03,-24.32l438.19 -253.33z"/>
    <path class="fil1 str0" d="M7114.91 14.62c8.7,-5.03 19.42,-5.03 28.11,0l438.19 253.33c8.68,5.02 14.03,14.29 14.03,24.32l0 506.74c0,10.03 -5.35,19.3 -14.03,24.32l-438.19 253.33c-8.7,5.03 -19.42,5.03 -28.11,0l-438.19 -253.33c-8.68,-5.02 -14.03,-14.29 -14.03,-24.32l0 -506.74c0,-10.03 5.35,-19.3 14.03,-24.32l438.19 -253.33z"/>
    <path class="fil1 str0" d="M8047.47 14.62c8.69,-5.03 19.42,-5.03 28.11,0l438.19 253.33c8.68,5.02 14.03,14.29 14.03,24.32l0 506.74c0,10.03 -5.35,19.3 -14.03,24.32l-438.19 253.33c-8.69,5.03 -19.42,5.03 -28.11,0l-438.19 -253.33c-8.68,-5.02 -14.03,-14.29 -14.03,-24.32l0 -506.74c0,-10.03 5.35,-19.3 14.03,-24.32l438.19 -253.33z"/>
    <path class="fil2 str0" style="mask:url(#id1)" d="M8980.02 14.62c8.7,-5.03 19.42,-5.03 28.11,0l438.19 253.33c8.68,5.02 14.03,14.29 14.03,24.32l0 506.74c0,10.03 -5.35,19.3 -14.03,24.32l-438.19 253.33c-8.7,5.03 -19.42,5.03 -28.11,0l-438.19 -253.33c-8.68,-5.02 -14.03,-14.29 -14.03,-24.32l0 -506.74c0,-10.03 5.35,-19.3 14.03,-24.32l438.19 -253.33z"/>
    <path class="fil1 str0" d="M9912.57 14.62c8.7,-5.03 19.42,-5.03 28.11,0l438.19 253.33c8.69,5.02 14.03,14.29 14.03,24.32l0 506.74c0,10.03 -5.35,19.3 -14.03,24.32l-438.19 253.33c-8.7,5.03 -19.42,5.03 -28.11,0l-438.19 -253.33c-8.68,-5.02 -14.03,-14.29 -14.03,-24.32l0 -506.74c0,-10.03 5.35,-19.3 14.03,-24.32l438.19 -253.33z"/>
    <path class="fil1 str0" d="M10845.12 14.62c8.7,-5.03 19.42,-5.03 28.11,0l438.18 253.33c8.65,5.02 14.04,14.29 14.04,24.32l0 506.74c0,10.03 -5.39,19.3 -14.04,24.32l-438.18 253.33c-8.7,5.03 -19.42,5.03 -28.11,0l-438.19 -253.33c-8.69,-5.02 -14.03,-14.29 -14.03,-24.32l0 -506.74c0,-10.03 5.35,-19.3 14.03,-24.32l438.19 -253.33z"/>
    <path class="fil1 str0" d="M11777.69 14.62c8.65,-5.03 19.44,-5.03 28.09,0l438.19 253.33c8.65,5.02 14.04,14.29 14.04,24.32l0 506.74c0,10.03 -5.39,19.3 -14.04,24.32l-438.19 253.33c-8.65,5.03 -19.44,5.03 -28.09,0l-438.19 -253.33c-8.65,-5.02 -14.04,-14.29 -14.04,-24.32l0 -506.74c0,-10.03 5.39,-19.3 14.04,-24.32l438.19 -253.33z"/>
    <path class="fil1 str0" d="M12710.24 14.62c8.65,-5.03 19.44,-5.03 28.09,0l438.19 253.33c8.65,5.02 14.04,14.29 14.04,24.32l0 506.74c0,10.03 -5.39,19.3 -14.04,24.32l-438.19 253.33c-8.65,5.03 -19.44,5.03 -28.09,0l-438.19 -253.33c-8.65,-5.02 -14.05,-14.29 -14.05,-24.32l0 -506.74c0,-10.03 5.39,-19.3 14.05,-24.32l438.19 -253.33z"/>
    <path class="fil1 str0" d="M13642.79 14.62c8.65,-5.03 19.44,-5.03 28.09,0l438.19 253.33c8.65,5.02 14.05,14.29 14.05,24.32l0 506.74c0,10.03 -5.39,19.3 -14.05,24.32l-438.19 253.33c-8.65,5.03 -19.44,5.03 -28.09,0l-438.19 -253.33c-8.65,-5.02 -14.05,-14.29 -14.05,-24.32l0 -506.74c0,-10.03 5.39,-19.3 14.05,-24.32l438.19 -253.33z"/>
    <path class="fil1 str0" d="M14575.35 14.62c8.65,-5.03 19.44,-5.03 28.09,0l438.19 253.33c8.65,5.02 14.05,14.29 14.05,24.32l0 506.74c0,10.03 -5.39,19.3 -14.05,24.32l-438.19 253.33c-8.65,5.03 -19.44,5.03 -28.09,0l-438.19 -253.33c-8.65,-5.02 -14.04,-14.29 -14.04,-24.32l0 -506.74c0,-10.03 5.39,-19.3 14.04,-24.32l438.19 -253.33z"/>
    <path class="fil1 str0" d="M15507.9 14.62c8.65,-5.03 19.44,-5.03 28.09,0l438.19 253.33c8.65,5.02 14.04,14.29 14.04,24.32l0 506.74c0,10.03 -5.39,19.3 -14.04,24.32l-438.19 253.33c-8.65,5.03 -19.44,5.03 -28.09,0l-438.19 -253.33c-8.65,-5.02 -14.04,-14.29 -14.04,-24.32l0 -506.74c0,-10.03 5.39,-19.3 14.04,-24.32l438.19 -253.33z"/>
    <path class="fil1 str0" d="M16440.45 14.62c8.65,-5.03 19.44,-5.03 28.09,0l438.19 253.33c8.65,5.02 14.04,14.29 14.04,24.32l0 506.74c0,10.03 -5.39,19.3 -14.04,24.32l-438.19 253.33c-8.65,5.03 -19.44,5.03 -28.09,0l-438.19 -253.33c-8.65,-5.02 -14.04,-14.29 -14.04,-24.32l0 -506.74c0,-10.03 5.39,-19.3 14.04,-24.32l438.19 -253.33z"/>
    <path class="fil1 str0" d="M120.76 813.75c8.7,-5.03 19.42,-5.03 28.12,0l438.19 253.33c8.68,5.02 14.03,14.29 14.03,24.32l0 506.74c0,10.03 -5.35,19.29 -14.03,24.31l-438.19 253.33c-8.7,5.03 -19.42,5.03 -28.12,0l-438.19 -253.33c-8.68,-5.02 -14.03,-14.28 -14.03,-24.31l0 -506.74c0,-10.03 5.35,-19.3 14.03,-24.32l438.19 -253.33z"/>
    <path class="fil1 str0" d="M1053.32 813.75c8.7,-5.03 19.42,-5.03 28.12,0l438.19 253.33c8.68,5.02 14.03,14.29 14.03,24.32l0 506.74c0,10.03 -5.35,19.29 -14.03,24.31l-438.19 253.33c-8.7,5.03 -19.42,5.03 -28.12,0l-438.19 -253.33c-8.68,-5.02 -14.03,-14.28 -14.03,-24.31l0 -506.74c0,-10.03 5.35,-19.3 14.03,-24.32l438.19 -253.33z"/>
    <path class="fil1 str0" d="M1985.87 813.75c8.7,-5.03 19.42,-5.03 28.11,0l438.19 253.33c8.68,5.02 14.03,14.29 14.03,24.32l0 506.74c0,10.03 -5.35,19.29 -14.03,24.31l-438.19 253.33c-8.7,5.03 -19.42,5.03 -28.11,0l-438.19 -253.33c-8.68,-5.02 -14.03,-14.28 -14.03,-24.31l0 -506.74c0,-10.03 5.35,-19.3 14.03,-24.32l438.19 -253.33z"/>
    <path class="fil1 str0" d="M2918.43 813.75c8.7,-5.03 19.42,-5.03 28.11,0l438.19 253.33c8.68,5.02 14.03,14.29 14.03,24.32l0 506.74c0,10.03 -5.35,19.29 -14.03,24.31l-438.19 253.33c-8.7,5.03 -19.42,5.03 -28.11,0l-438.19 -253.33c-8.68,-5.02 -14.03,-14.28 -14.03,-24.31l0 -506.74c0,-10.03 5.35,-19.3 14.03,-24.32l438.19 -253.33z"/>
    <path class="fil1 str0" d="M3850.98 813.75c8.7,-5.03 19.42,-5.03 28.11,0l438.19 253.33c8.68,5.02 14.03,14.29 14.03,24.32l0 506.74c0,10.03 -5.35,19.29 -14.03,24.31l-438.19 253.33c-8.7,5.03 -19.42,5.03 -28.11,0l-438.19 -253.33c-8.68,-5.02 -14.03,-14.28 -14.03,-24.31l0 -506.74c0,-10.03 5.35,-19.3 14.03,-24.32l438.19 -253.33z"/>
    <path class="fil1 str0" d="M4783.53 813.75c8.7,-5.03 19.42,-5.03 28.11,0l438.19 253.33c8.69,5.02 14.03,14.29 14.03,24.32l0 506.74c0,10.03 -5.35,19.29 -14.03,24.31l-438.19 253.33c-8.7,5.03 -19.42,5.03 -28.11,0l-438.19 -253.33c-8.68,-5.02 -14.03,-14.28 -14.03,-24.31l0 -506.74c0,-10.03 5.35,-19.3 14.03,-24.32l438.19 -253.33z"/>
    <path class="fil1 str0" d="M5716.08 813.75c8.7,-5.03 19.42,-5.03 28.11,0l438.19 253.33c8.68,5.02 14.03,14.29 14.03,24.32l0 506.74c0,10.03 -5.35,19.29 -14.03,24.31l-438.19 253.33c-8.7,5.03 -19.42,5.03 -28.11,0l-438.19 -253.33c-8.69,-5.02 -14.03,-14.28 -14.03,-24.31l0 -506.74c0,-10.03 5.35,-19.3 14.03,-24.32l438.19 -253.33z"/>
    <path class="fil1 str0" d="M6648.64 813.75c8.7,-5.03 19.42,-5.03 28.11,0l438.19 253.33c8.68,5.02 14.03,14.29 14.03,24.32l0 506.74c0,10.03 -5.35,19.29 -14.03,24.31l-438.19 253.33c-8.7,5.03 -19.42,5.03 -28.11,0l-438.19 -253.33c-8.68,-5.02 -14.03,-14.28 -14.03,-24.31l0 -506.74c0,-10.03 5.35,-19.3 14.03,-24.32l438.19 -253.33z"/>
    <path class="fil1 str0" d="M7581.19 813.75c8.7,-5.03 19.42,-5.03 28.11,0l438.19 253.33c8.68,5.02 14.03,14.29 14.03,24.32l0 506.74c0,10.03 -5.35,19.29 -14.03,24.31l-438.19 253.33c-8.7,5.03 -19.42,5.03 -28.11,0l-438.19 -253.33c-8.68,-5.02 -14.03,-14.28 -14.03,-24.31l0 -506.74c0,-10.03 5.35,-19.3 14.03,-24.32l438.19 -253.33z"/>
    <path class="fil1 str0" d="M8513.74 813.75c8.7,-5.03 19.42,-5.03 28.11,0l438.19 253.33c8.68,5.02 14.03,14.29 14.03,24.32l0 506.74c0,10.03 -5.35,19.29 -14.03,24.31l-438.19 253.33c-8.7,5.03 -19.42,5.03 -28.11,0l-438.19 -253.33c-8.68,-5.02 -14.03,-14.28 -14.03,-24.31l0 -506.74c0,-10.03 5.35,-19.3 14.03,-24.32l438.19 -253.33z"/>
    <path class="fil1 str0" d="M9446.3 813.75c8.7,-5.03 19.42,-5.03 28.11,0l438.19 253.33c8.68,5.02 14.03,14.29 14.03,24.32l0 506.74c0,10.03 -5.35,19.29 -14.03,24.31l-438.19 253.33c-8.7,5.03 -19.42,5.03 -28.11,0l-438.19 -253.33c-8.68,-5.02 -14.03,-14.28 -14.03,-24.31l0 -506.74c0,-10.03 5.35,-19.3 14.03,-24.32l438.19 -253.33z"/>
    <path class="fil1 str0" d="M10378.85 813.75c8.7,-5.03 19.42,-5.03 28.11,0l438.19 253.33c8.69,5.02 14.03,14.29 14.03,24.32l0 506.74c0,10.03 -5.35,19.29 -14.03,24.31l-438.19 253.33c-8.7,5.03 -19.42,5.03 -28.11,0l-438.19 -253.33c-8.68,-5.02 -14.03,-14.28 -14.03,-24.31l0 -506.74c0,-10.03 5.35,-19.3 14.03,-24.32l438.19 -253.33z"/>
    <path class="fil1 str0" d="M11311.41 813.75c8.65,-5.03 19.44,-5.03 28.09,0l438.19 253.33c8.65,5.02 14.04,14.29 14.04,24.32l0 506.74c0,10.03 -5.39,19.29 -14.04,24.31l-438.19 253.33c-8.65,5.03 -19.44,5.03 -28.09,0l-438.2 -253.33c-8.69,-5.02 -14.03,-14.28 -14.03,-24.31l0 -506.74c0,-10.03 5.35,-19.3 14.03,-24.32l438.2 -253.33z"/>
    <path class="fil1 str0" d="M12243.97 813.75c8.65,-5.03 19.44,-5.03 28.09,0l438.19 253.33c8.65,5.02 14.04,14.29 14.04,24.32l0 506.74c0,10.03 -5.39,19.29 -14.04,24.31l-438.19 253.33c-8.65,5.03 -19.44,5.03 -28.09,0l-438.19 -253.33c-8.65,-5.02 -14.04,-14.28 -14.04,-24.31l0 -506.74c0,-10.03 5.39,-19.3 14.04,-24.32l438.19 -253.33z"/>
    <path class="fil1 str0" d="M13176.52 813.75c8.65,-5.03 19.44,-5.03 28.09,0l438.19 253.33c8.65,5.02 14.05,14.29 14.05,24.32l0 506.74c0,10.03 -5.39,19.29 -14.05,24.31l-438.19 253.33c-8.65,5.03 -19.44,5.03 -28.09,0l-438.19 -253.33c-8.65,-5.02 -14.05,-14.28 -14.05,-24.31l0 -506.74c0,-10.03 5.39,-19.3 14.05,-24.32l438.19 -253.33z"/>
    <path class="fil1 str0" d="M14109.07 813.75c8.65,-5.03 19.44,-5.03 28.09,0l438.19 253.33c8.65,5.02 14.05,14.29 14.05,24.32l0 506.74c0,10.03 -5.39,19.29 -14.05,24.31l-438.19 253.33c-8.65,5.03 -19.44,5.03 -28.09,0l-438.19 -253.33c-8.65,-5.02 -14.04,-14.28 -14.04,-24.31l0 -506.74c0,-10.03 5.39,-19.3 14.04,-24.32l438.19 -253.33z"/>
    <path class="fil1 str0" d="M15041.62 813.75c8.65,-5.03 19.44,-5.03 28.09,0l438.19 253.33c8.65,5.02 14.04,14.29 14.04,24.32l0 506.74c0,10.03 -5.39,19.29 -14.04,24.31l-438.19 253.33c-8.65,5.03 -19.44,5.03 -28.09,0l-438.19 -253.33c-8.65,-5.02 -14.04,-14.28 -14.04,-24.31l0 -506.74c0,-10.03 5.39,-19.3 14.04,-24.32l438.19 -253.33z"/>
    <path class="fil1 str0" d="M15974.18 813.75c8.65,-5.03 19.44,-5.03 28.09,0l438.19 253.33c8.65,5.02 14.04,14.29 14.04,24.32l0 506.74c0,10.03 -5.39,19.29 -14.04,24.31l-438.19 253.33c-8.65,5.03 -19.44,5.03 -28.09,0l-438.19 -253.33c-8.65,-5.02 -14.04,-14.28 -14.04,-24.31l0 -506.74c0,-10.03 5.39,-19.3 14.04,-24.32l438.19 -253.33z"/>
    <path class="fil1 str0" d="M587.04 1612.88c8.7,-5.04 19.42,-5.04 28.12,0l438.19 253.33c8.68,5.02 14.03,14.28 14.03,24.32l0 506.74c0,10.03 -5.35,19.29 -14.03,24.31l-438.19 253.33c-8.7,5.03 -19.42,5.03 -28.12,0l-438.19 -253.33c-8.68,-5.02 -14.03,-14.28 -14.03,-24.31l0 -506.74c0,-10.03 5.35,-19.29 14.03,-24.32l438.19 -253.33z"/>
    <path class="fil1 str0" d="M1519.59 1612.88c8.7,-5.04 19.42,-5.04 28.11,0l438.19 253.33c8.68,5.02 14.03,14.28 14.03,24.32l0 506.74c0,10.03 -5.35,19.29 -14.03,24.31l-438.19 253.33c-8.7,5.03 -19.42,5.03 -28.11,0l-438.19 -253.33c-8.68,-5.02 -14.03,-14.28 -14.03,-24.31l0 -506.74c0,-10.03 5.35,-19.29 14.03,-24.32l438.19 -253.33z"/>
    <path class="fil1 str0" d="M2452.15 1612.88c8.69,-5.04 19.42,-5.04 28.11,0l438.19 253.33c8.68,5.02 14.03,14.28 14.03,24.32l0 506.74c0,10.03 -5.35,19.29 -14.03,24.31l-438.19 253.33c-8.69,5.03 -19.42,5.03 -28.11,0l-438.19 -253.33c-8.68,-5.02 -14.03,-14.28 -14.03,-24.31l0 -506.74c0,-10.03 5.35,-19.29 14.03,-24.32l438.19 -253.33z"/>
    <path class="fil1 str0" d="M3384.7 1612.88c8.7,-5.04 19.42,-5.04 28.11,0l438.19 253.33c8.68,5.02 14.03,14.28 14.03,24.32l0 506.74c0,10.03 -5.35,19.29 -14.03,24.31l-438.19 253.33c-8.7,5.03 -19.42,5.03 -28.11,0l-438.19 -253.33c-8.68,-5.02 -14.03,-14.28 -14.03,-24.31l0 -506.74c0,-10.03 5.35,-19.29 14.03,-24.32l438.19 -253.33z"/>
    <path class="fil2 str0" style="mask:url(#id3)" d="M4317.26 1612.88c8.7,-5.04 19.42,-5.04 28.11,0l438.19 253.33c8.68,5.02 14.03,14.28 14.03,24.32l0 506.74c0,10.03 -5.35,19.29 -14.03,24.31l-438.19 253.33c-8.7,5.03 -19.42,5.03 -28.11,0l-438.19 -253.33c-8.68,-5.02 -14.03,-14.28 -14.03,-24.31l0 -506.74c0,-10.03 5.35,-19.29 14.03,-24.32l438.19 -253.33z"/>
    <path class="fil1 str0" d="M5249.81 1612.88c8.7,-5.04 19.42,-5.04 28.11,0l438.19 253.33c8.69,5.02 14.03,14.28 14.03,24.32l0 506.74c0,10.03 -5.35,19.29 -14.03,24.31l-438.19 253.33c-8.7,5.03 -19.42,5.03 -28.11,0l-438.19 -253.33c-8.69,-5.02 -14.03,-14.28 -14.03,-24.31l0 -506.74c0,-10.03 5.35,-19.29 14.03,-24.32l438.19 -253.33z"/>
    <path class="fil1 str0" d="M6182.36 1612.88c8.7,-5.04 19.42,-5.04 28.11,0l438.19 253.33c8.68,5.02 14.03,14.28 14.03,24.32l0 506.74c0,10.03 -5.35,19.29 -14.03,24.31l-438.19 253.33c-8.7,5.03 -19.42,5.03 -28.11,0l-438.19 -253.33c-8.69,-5.02 -14.03,-14.28 -14.03,-24.31l0 -506.74c0,-10.03 5.35,-19.29 14.03,-24.32l438.19 -253.33z"/>
    <path class="fil1 str0" d="M7114.91 1612.88c8.7,-5.04 19.42,-5.04 28.11,0l438.19 253.33c8.68,5.02 14.03,14.28 14.03,24.32l0 506.74c0,10.03 -5.35,19.29 -14.03,24.31l-438.19 253.33c-8.7,5.03 -19.42,5.03 -28.11,0l-438.19 -253.33c-8.68,-5.02 -14.03,-14.28 -14.03,-24.31l0 -506.74c0,-10.03 5.35,-19.29 14.03,-24.32l438.19 -253.33z"/>
    <path class="fil1 str0" d="M8047.47 1612.88c8.69,-5.04 19.42,-5.04 28.11,0l438.19 253.33c8.68,5.02 14.03,14.28 14.03,24.32l0 506.74c0,10.03 -5.35,19.29 -14.03,24.31l-438.19 253.33c-8.69,5.03 -19.42,5.03 -28.11,0l-438.19 -253.33c-8.68,-5.02 -14.03,-14.28 -14.03,-24.31l0 -506.74c0,-10.03 5.35,-19.29 14.03,-24.32l438.19 -253.33z"/>
    <path class="fil1 str0" d="M8980.02 1612.88c8.7,-5.04 19.42,-5.04 28.11,0l438.19 253.33c8.68,5.02 14.03,14.28 14.03,24.32l0 506.74c0,10.03 -5.35,19.29 -14.03,24.31l-438.19 253.33c-8.7,5.03 -19.42,5.03 -28.11,0l-438.19 -253.33c-8.68,-5.02 -14.03,-14.28 -14.03,-24.31l0 -506.74c0,-10.03 5.35,-19.29 14.03,-24.32l438.19 -253.33z"/>
    <path class="fil1 str0" d="M9912.57 1612.88c8.7,-5.04 19.42,-5.04 28.11,0l438.19 253.33c8.69,5.02 14.03,14.28 14.03,24.32l0 506.74c0,10.03 -5.35,19.29 -14.03,24.31l-438.19 253.33c-8.7,5.03 -19.42,5.03 -28.11,0l-438.19 -253.33c-8.68,-5.02 -14.03,-14.28 -14.03,-24.31l0 -506.74c0,-10.03 5.35,-19.29 14.03,-24.32l438.19 -253.33z"/>
    <path class="fil1 str0" d="M10845.12 1612.88c8.7,-5.04 19.42,-5.04 28.11,0l438.18 253.33c8.65,5.02 14.04,14.28 14.04,24.32l0 506.74c0,10.03 -5.39,19.29 -14.04,24.31l-438.18 253.33c-8.7,5.03 -19.42,5.03 -28.11,0l-438.19 -253.33c-8.69,-5.02 -14.03,-14.28 -14.03,-24.31l0 -506.74c0,-10.03 5.35,-19.29 14.03,-24.32l438.19 -253.33z"/>
    <path class="fil1 str0" d="M11777.69 1612.88c8.65,-5.04 19.44,-5.04 28.09,0l438.19 253.33c8.65,5.02 14.04,14.28 14.04,24.32l0 506.74c0,10.03 -5.39,19.29 -14.04,24.31l-438.19 253.33c-8.65,5.03 -19.44,5.03 -28.09,0l-438.19 -253.33c-8.65,-5.02 -14.04,-14.28 -14.04,-24.31l0 -506.74c0,-10.03 5.39,-19.29 14.04,-24.32l438.19 -253.33z"/>
    <path class="fil2 str0" style="mask:url(#id5)" d="M12725.22 1597.9c8.65,-5.04 19.44,-5.04 28.09,0l438.19 253.33c8.65,5.02 14.04,14.28 14.04,24.32l0 506.74c0,10.03 -5.39,19.29 -14.04,24.31l-438.19 253.33c-8.65,5.03 -19.44,5.03 -28.09,0l-438.19 -253.33c-8.65,-5.02 -14.05,-14.28 -14.05,-24.31l0 -506.74c0,-10.03 5.39,-19.29 14.05,-24.32l438.19 -253.33z"/>
    <path class="fil1 str0" d="M13642.79 1612.88c8.65,-5.04 19.44,-5.04 28.09,0l438.19 253.33c8.65,5.02 14.05,14.28 14.05,24.32l0 506.74c0,10.03 -5.39,19.29 -14.05,24.31l-438.19 253.33c-8.65,5.03 -19.44,5.03 -28.09,0l-438.19 -253.33c-8.65,-5.02 -14.05,-14.28 -14.05,-24.31l0 -506.74c0,-10.03 5.39,-19.29 14.05,-24.32l438.19 -253.33z"/>
    <path class="fil1 str0" d="M14575.35 1612.88c8.65,-5.04 19.44,-5.04 28.09,0l438.19 253.33c8.65,5.02 14.05,14.28 14.05,24.32l0 506.74c0,10.03 -5.39,19.29 -14.05,24.31l-438.19 253.33c-8.65,5.03 -19.44,5.03 -28.09,0l-438.19 -253.33c-8.65,-5.02 -14.04,-14.28 -14.04,-24.31l0 -506.74c0,-10.03 5.39,-19.29 14.04,-24.32l438.19 -253.33z"/>
    <path class="fil1 str0" d="M15507.9 1612.88c8.65,-5.04 19.44,-5.04 28.09,0l438.19 253.33c8.65,5.02 14.04,14.28 14.04,24.32l0 506.74c0,10.03 -5.39,19.29 -14.04,24.31l-438.19 253.33c-8.65,5.03 -19.44,5.03 -28.09,0l-438.19 -253.33c-8.65,-5.02 -14.04,-14.28 -14.04,-24.31l0 -506.74c0,-10.03 5.39,-19.29 14.04,-24.32l438.19 -253.33z"/>
    <path class="fil1 str0" d="M16440.45 1612.88c8.65,-5.04 19.44,-5.04 28.09,0l438.19 253.33c8.65,5.02 14.04,14.28 14.04,24.32l0 506.74c0,10.03 -5.39,19.29 -14.04,24.31l-438.19 253.33c-8.65,5.03 -19.44,5.03 -28.09,0l-438.19 -253.33c-8.65,-5.02 -14.04,-14.28 -14.04,-24.31l0 -506.74c0,-10.03 5.39,-19.29 14.04,-24.32l438.19 -253.33z"/>
    <path class="fil1 str0" d="M120.76 2412.01c8.7,-5.04 19.42,-5.04 28.12,0l438.19 253.33c8.68,5.02 14.03,14.28 14.03,24.32l0 506.73c0,10.03 -5.35,19.29 -14.03,24.32l-438.19 253.33c-8.7,5.03 -19.42,5.03 -28.12,0l-438.19 -253.33c-8.68,-5.02 -14.03,-14.28 -14.03,-24.32l0 -506.73c0,-10.03 5.35,-19.29 14.03,-24.32l438.19 -253.33z"/>
    <path class="fil1 str0" d="M1053.32 2412.01c8.7,-5.04 19.42,-5.04 28.12,0l438.19 253.33c8.68,5.02 14.03,14.28 14.03,24.32l0 506.73c0,10.03 -5.35,19.29 -14.03,24.32l-438.19 253.33c-8.7,5.03 -19.42,5.03 -28.12,0l-438.19 -253.33c-8.68,-5.02 -14.03,-14.28 -14.03,-24.32l0 -506.73c0,-10.03 5.35,-19.29 14.03,-24.32l438.19 -253.33z"/>
    <path class="fil1 str0" d="M1985.87 2412.01c8.7,-5.04 19.42,-5.04 28.11,0l438.19 253.33c8.68,5.02 14.03,14.28 14.03,24.32l0 506.73c0,10.03 -5.35,19.29 -14.03,24.32l-438.19 253.33c-8.7,5.03 -19.42,5.03 -28.11,0l-438.19 -253.33c-8.68,-5.02 -14.03,-14.28 -14.03,-24.32l0 -506.73c0,-10.03 5.35,-19.29 14.03,-24.32l438.19 -253.33z"/>
    <path class="fil1 str0" d="M2918.43 2412.01c8.7,-5.04 19.42,-5.04 28.11,0l438.19 253.33c8.68,5.02 14.03,14.28 14.03,24.32l0 506.73c0,10.03 -5.35,19.29 -14.03,24.32l-438.19 253.33c-8.7,5.03 -19.42,5.03 -28.11,0l-438.19 -253.33c-8.68,-5.02 -14.03,-14.28 -14.03,-24.32l0 -506.73c0,-10.03 5.35,-19.29 14.03,-24.32l438.19 -253.33z"/>
    <path class="fil1 str0" d="M3850.98 2412.01c8.7,-5.04 19.42,-5.04 28.11,0l438.19 253.33c8.68,5.02 14.03,14.28 14.03,24.32l0 506.73c0,10.03 -5.35,19.29 -14.03,24.32l-438.19 253.33c-8.7,5.03 -19.42,5.03 -28.11,0l-438.19 -253.33c-8.68,-5.02 -14.03,-14.28 -14.03,-24.32l0 -506.73c0,-10.03 5.35,-19.29 14.03,-24.32l438.19 -253.33z"/>
    <path class="fil1 str0" d="M4783.53 2412.01c8.7,-5.04 19.42,-5.04 28.11,0l438.19 253.33c8.69,5.02 14.03,14.28 14.03,24.32l0 506.73c0,10.03 -5.35,19.29 -14.03,24.32l-438.19 253.33c-8.7,5.03 -19.42,5.03 -28.11,0l-438.19 -253.33c-8.68,-5.02 -14.03,-14.28 -14.03,-24.32l0 -506.73c0,-10.03 5.35,-19.29 14.03,-24.32l438.19 -253.33z"/>
    <path class="fil1 str0" d="M5716.08 2412.01c8.7,-5.04 19.42,-5.04 28.11,0l438.19 253.33c8.68,5.02 14.03,14.28 14.03,24.32l0 506.73c0,10.03 -5.35,19.29 -14.03,24.32l-438.19 253.33c-8.7,5.03 -19.42,5.03 -28.11,0l-438.19 -253.33c-8.69,-5.02 -14.03,-14.28 -14.03,-24.32l0 -506.73c0,-10.03 5.35,-19.29 14.03,-24.32l438.19 -253.33z"/>
    <path class="fil1 str0" d="M6648.64 2412.01c8.7,-5.04 19.42,-5.04 28.11,0l438.19 253.33c8.68,5.02 14.03,14.28 14.03,24.32l0 506.73c0,10.03 -5.35,19.29 -14.03,24.32l-438.19 253.33c-8.7,5.03 -19.42,5.03 -28.11,0l-438.19 -253.33c-8.68,-5.02 -14.03,-14.28 -14.03,-24.32l0 -506.73c0,-10.03 5.35,-19.29 14.03,-24.32l438.19 -253.33z"/>
    <path class="fil1 str0" d="M7581.19 2412.01c8.7,-5.04 19.42,-5.04 28.11,0l438.19 253.33c8.68,5.02 14.03,14.28 14.03,24.32l0 506.73c0,10.03 -5.35,19.29 -14.03,24.32l-438.19 253.33c-8.7,5.03 -19.42,5.03 -28.11,0l-438.19 -253.33c-8.68,-5.02 -14.03,-14.28 -14.03,-24.32l0 -506.73c0,-10.03 5.35,-19.29 14.03,-24.32l438.19 -253.33z"/>
    <path class="fil1 str0" d="M8513.74 2412.01c8.7,-5.04 19.42,-5.04 28.11,0l438.19 253.33c8.68,5.02 14.03,14.28 14.03,24.32l0 506.73c0,10.03 -5.35,19.29 -14.03,24.32l-438.19 253.33c-8.7,5.03 -19.42,5.03 -28.11,0l-438.19 -253.33c-8.68,-5.02 -14.03,-14.28 -14.03,-24.32l0 -506.73c0,-10.03 5.35,-19.29 14.03,-24.32l438.19 -253.33z"/>
    <path class="fil1 str0" d="M9446.3 2412.01c8.7,-5.04 19.42,-5.04 28.11,0l438.19 253.33c8.68,5.02 14.03,14.28 14.03,24.32l0 506.73c0,10.03 -5.35,19.29 -14.03,24.32l-438.19 253.33c-8.7,5.03 -19.42,5.03 -28.11,0l-438.19 -253.33c-8.68,-5.02 -14.03,-14.28 -14.03,-24.32l0 -506.73c0,-10.03 5.35,-19.29 14.03,-24.32l438.19 -253.33z"/>
    <path class="fil1 str0" d="M10378.85 2412.01c8.7,-5.04 19.42,-5.04 28.11,0l438.19 253.33c8.69,5.02 14.03,14.28 14.03,24.32l0 506.73c0,10.03 -5.35,19.29 -14.03,24.32l-438.19 253.33c-8.7,5.03 -19.42,5.03 -28.11,0l-438.19 -253.33c-8.68,-5.02 -14.03,-14.28 -14.03,-24.32l0 -506.73c0,-10.03 5.35,-19.29 14.03,-24.32l438.19 -253.33z"/>
    <path class="fil1 str0" d="M11311.41 2412.01c8.65,-5.04 19.44,-5.04 28.09,0l438.19 253.33c8.65,5.02 14.04,14.28 14.04,24.32l0 506.73c0,10.03 -5.39,19.29 -14.04,24.32l-438.19 253.33c-8.65,5.03 -19.44,5.03 -28.09,0l-438.2 -253.33c-8.69,-5.02 -14.03,-14.28 -14.03,-24.32l0 -506.73c0,-10.03 5.35,-19.29 14.03,-24.32l438.2 -253.33z"/>
    <path class="fil1 str0" d="M12243.97 2412.01c8.65,-5.04 19.44,-5.04 28.09,0l438.19 253.33c8.65,5.02 14.04,14.28 14.04,24.32l0 506.73c0,10.03 -5.39,19.29 -14.04,24.32l-438.19 253.33c-8.65,5.03 -19.44,5.03 -28.09,0l-438.19 -253.33c-8.65,-5.02 -14.04,-14.28 -14.04,-24.32l0 -506.73c0,-10.03 5.39,-19.29 14.04,-24.32l438.19 -253.33z"/>
    <path class="fil1 str0" d="M13176.52 2412.01c8.65,-5.04 19.44,-5.04 28.09,0l438.19 253.33c8.65,5.02 14.05,14.28 14.05,24.32l0 506.73c0,10.03 -5.39,19.29 -14.05,24.32l-438.19 253.33c-8.65,5.03 -19.44,5.03 -28.09,0l-438.19 -253.33c-8.65,-5.02 -14.05,-14.28 -14.05,-24.32l0 -506.73c0,-10.03 5.39,-19.29 14.05,-24.32l438.19 -253.33z"/>
    <path class="fil1 str0" d="M14109.07 2412.01c8.65,-5.04 19.44,-5.04 28.09,0l438.19 253.33c8.65,5.02 14.05,14.28 14.05,24.32l0 506.73c0,10.03 -5.39,19.29 -14.05,24.32l-438.19 253.33c-8.65,5.03 -19.44,5.03 -28.09,0l-438.19 -253.33c-8.65,-5.02 -14.04,-14.28 -14.04,-24.32l0 -506.73c0,-10.03 5.39,-19.29 14.04,-24.32l438.19 -253.33z"/>
    <path class="fil1 str0" d="M15041.62 2412.01c8.65,-5.04 19.44,-5.04 28.09,0l438.19 253.33c8.65,5.02 14.04,14.28 14.04,24.32l0 506.73c0,10.03 -5.39,19.29 -14.04,24.32l-438.19 253.33c-8.65,5.03 -19.44,5.03 -28.09,0l-438.19 -253.33c-8.65,-5.02 -14.04,-14.28 -14.04,-24.32l0 -506.73c0,-10.03 5.39,-19.29 14.04,-24.32l438.19 -253.33z"/>
    <path class="fil1 str0" d="M15974.18 2412.01c8.65,-5.04 19.44,-5.04 28.09,0l438.19 253.33c8.65,5.02 14.04,14.28 14.04,24.32l0 506.73c0,10.03 -5.39,19.29 -14.04,24.32l-438.19 253.33c-8.65,5.03 -19.44,5.03 -28.09,0l-438.19 -253.33c-8.65,-5.02 -14.04,-14.28 -14.04,-24.32l0 -506.73c0,-10.03 5.39,-19.29 14.04,-24.32l438.19 -253.33z"/>
    <path class="fil1 str0" d="M587.04 3211.14c8.7,-5.03 19.42,-5.03 28.12,0l438.19 253.33c8.68,5.02 14.03,14.28 14.03,24.32l0 506.73c0,10.03 -5.35,19.29 -14.03,24.32l-438.19 253.33c-8.7,5.03 -19.42,5.03 -28.12,0l-438.19 -253.33c-8.68,-5.02 -14.03,-14.28 -14.03,-24.32l0 -506.73c0,-10.03 5.35,-19.29 14.03,-24.32l438.19 -253.33z"/>
    <path class="fil1 str0" d="M1519.59 3211.14c8.7,-5.03 19.42,-5.03 28.11,0l438.19 253.33c8.68,5.02 14.03,14.28 14.03,24.32l0 506.73c0,10.03 -5.35,19.29 -14.03,24.32l-438.19 253.33c-8.7,5.03 -19.42,5.03 -28.11,0l-438.19 -253.33c-8.68,-5.02 -14.03,-14.28 -14.03,-24.32l0 -506.73c0,-10.03 5.35,-19.29 14.03,-24.32l438.19 -253.33z"/>
    <path class="fil1 str0" d="M2452.15 3211.14c8.69,-5.03 19.42,-5.03 28.11,0l438.19 253.33c8.68,5.02 14.03,14.28 14.03,24.32l0 506.73c0,10.03 -5.35,19.29 -14.03,24.32l-438.19 253.33c-8.69,5.03 -19.42,5.03 -28.11,0l-438.19 -253.33c-8.68,-5.02 -14.03,-14.28 -14.03,-24.32l0 -506.73c0,-10.03 5.35,-19.29 14.03,-24.32l438.19 -253.33z"/>
    <path class="fil1 str0" d="M3384.7 3211.14c8.7,-5.03 19.42,-5.03 28.11,0l438.19 253.33c8.68,5.02 14.03,14.28 14.03,24.32l0 506.73c0,10.03 -5.35,19.29 -14.03,24.32l-438.19 253.33c-8.7,5.03 -19.42,5.03 -28.11,0l-438.19 -253.33c-8.68,-5.02 -14.03,-14.28 -14.03,-24.32l0 -506.73c0,-10.03 5.35,-19.29 14.03,-24.32l438.19 -253.33z"/>
    <path class="fil1 str0" d="M4317.26 3211.14c8.7,-5.03 19.42,-5.03 28.11,0l438.19 253.33c8.68,5.02 14.03,14.28 14.03,24.32l0 506.73c0,10.03 -5.35,19.29 -14.03,24.32l-438.19 253.33c-8.7,5.03 -19.42,5.03 -28.11,0l-438.19 -253.33c-8.68,-5.02 -14.03,-14.28 -14.03,-24.32l0 -506.73c0,-10.03 5.35,-19.29 14.03,-24.32l438.19 -253.33z"/>
    <path class="fil1 str0" d="M5249.81 3211.14c8.7,-5.03 19.42,-5.03 28.11,0l438.19 253.33c8.69,5.02 14.03,14.28 14.03,24.32l0 506.73c0,10.03 -5.35,19.29 -14.03,24.32l-438.19 253.33c-8.7,5.03 -19.42,5.03 -28.11,0l-438.19 -253.33c-8.69,-5.02 -14.03,-14.28 -14.03,-24.32l0 -506.73c0,-10.03 5.35,-19.29 14.03,-24.32l438.19 -253.33z"/>
    <path class="fil2 str0" style="mask:url(#id7)" d="M6182.36 3211.14c8.7,-5.03 19.42,-5.03 28.11,0l438.19 253.33c8.68,5.02 14.03,14.28 14.03,24.32l0 506.73c0,10.03 -5.35,19.29 -14.03,24.32l-438.19 253.33c-8.7,5.03 -19.42,5.03 -28.11,0l-438.19 -253.33c-8.69,-5.02 -14.03,-14.28 -14.03,-24.32l0 -506.73c0,-10.03 5.35,-19.29 14.03,-24.32l438.19 -253.33z"/>
    <path class="fil1 str0" d="M7114.91 3211.14c8.7,-5.03 19.42,-5.03 28.11,0l438.19 253.33c8.68,5.02 14.03,14.28 14.03,24.32l0 506.73c0,10.03 -5.35,19.29 -14.03,24.32l-438.19 253.33c-8.7,5.03 -19.42,5.03 -28.11,0l-438.19 -253.33c-8.68,-5.02 -14.03,-14.28 -14.03,-24.32l0 -506.73c0,-10.03 5.35,-19.29 14.03,-24.32l438.19 -253.33z"/>
    <path class="fil1 str0" d="M8047.47 3211.14c8.69,-5.03 19.42,-5.03 28.11,0l438.19 253.33c8.68,5.02 14.03,14.28 14.03,24.32l0 506.73c0,10.03 -5.35,19.29 -14.03,24.32l-438.19 253.33c-8.69,5.03 -19.42,5.03 -28.11,0l-438.19 -253.33c-8.68,-5.02 -14.03,-14.28 -14.03,-24.32l0 -506.73c0,-10.03 5.35,-19.29 14.03,-24.32l438.19 -253.33z"/>
    <path class="fil1 str0" d="M8980.02 3211.14c8.7,-5.03 19.42,-5.03 28.11,0l438.19 253.33c8.68,5.02 14.03,14.28 14.03,24.32l0 506.73c0,10.03 -5.35,19.29 -14.03,24.32l-438.19 253.33c-8.7,5.03 -19.42,5.03 -28.11,0l-438.19 -253.33c-8.68,-5.02 -14.03,-14.28 -14.03,-24.32l0 -506.73c0,-10.03 5.35,-19.29 14.03,-24.32l438.19 -253.33z"/>
    <path class="fil1 str0" d="M9912.57 3211.14c8.7,-5.03 19.42,-5.03 28.11,0l438.19 253.33c8.69,5.02 14.03,14.28 14.03,24.32l0 506.73c0,10.03 -5.35,19.29 -14.03,24.32l-438.19 253.33c-8.7,5.03 -19.42,5.03 -28.11,0l-438.19 -253.33c-8.68,-5.02 -14.03,-14.28 -14.03,-24.32l0 -506.73c0,-10.03 5.35,-19.29 14.03,-24.32l438.19 -253.33z"/>
    <path class="fil1 str0" d="M10845.12 3211.14c8.7,-5.03 19.42,-5.03 28.11,0l438.18 253.33c8.65,5.02 14.04,14.28 14.04,24.32l0 506.73c0,10.03 -5.39,19.29 -14.04,24.32l-438.18 253.33c-8.7,5.03 -19.42,5.03 -28.11,0l-438.19 -253.33c-8.69,-5.02 -14.03,-14.28 -14.03,-24.32l0 -506.73c0,-10.03 5.35,-19.29 14.03,-24.32l438.19 -253.33z"/>
    <path class="fil1 str0" d="M11777.69 3211.14c8.65,-5.03 19.44,-5.03 28.09,0l438.19 253.33c8.65,5.02 14.04,14.28 14.04,24.32l0 506.73c0,10.03 -5.39,19.29 -14.04,24.32l-438.19 253.33c-8.65,5.03 -19.44,5.03 -28.09,0l-438.19 -253.33c-8.65,-5.02 -14.04,-14.28 -14.04,-24.32l0 -506.73c0,-10.03 5.39,-19.29 14.04,-24.32l438.19 -253.33z"/>
    <path class="fil1 str0" d="M12710.24 3211.14c8.65,-5.03 19.44,-5.03 28.09,0l438.19 253.33c8.65,5.02 14.04,14.28 14.04,24.32l0 506.73c0,10.03 -5.39,19.29 -14.04,24.32l-438.19 253.33c-8.65,5.03 -19.44,5.03 -28.09,0l-438.19 -253.33c-8.65,-5.02 -14.05,-14.28 -14.05,-24.32l0 -506.73c0,-10.03 5.39,-19.29 14.05,-24.32l438.19 -253.33z"/>
    <path class="fil1 str0" d="M13642.79 3211.14c8.65,-5.03 19.44,-5.03 28.09,0l438.19 253.33c8.65,5.02 14.05,14.28 14.05,24.32l0 506.73c0,10.03 -5.39,19.29 -14.05,24.32l-438.19 253.33c-8.65,5.03 -19.44,5.03 -28.09,0l-438.19 -253.33c-8.65,-5.02 -14.05,-14.28 -14.05,-24.32l0 -506.73c0,-10.03 5.39,-19.29 14.05,-24.32l438.19 -253.33z"/>
    <path class="fil1 str0" d="M14575.35 3211.14c8.65,-5.03 19.44,-5.03 28.09,0l438.19 253.33c8.65,5.02 14.05,14.28 14.05,24.32l0 506.73c0,10.03 -5.39,19.29 -14.05,24.32l-438.19 253.33c-8.65,5.03 -19.44,5.03 -28.09,0l-438.19 -253.33c-8.65,-5.02 -14.04,-14.28 -14.04,-24.32l0 -506.73c0,-10.03 5.39,-19.29 14.04,-24.32l438.19 -253.33z"/>
    <path class="fil1 str0" d="M15507.9 3211.14c8.65,-5.03 19.44,-5.03 28.09,0l438.19 253.33c8.65,5.02 14.04,14.28 14.04,24.32l0 506.73c0,10.03 -5.39,19.29 -14.04,24.32l-438.19 253.33c-8.65,5.03 -19.44,5.03 -28.09,0l-438.19 -253.33c-8.65,-5.02 -14.04,-14.28 -14.04,-24.32l0 -506.73c0,-10.03 5.39,-19.29 14.04,-24.32l438.19 -253.33z"/>
    <path class="fil1 str0" d="M16440.45 3211.14c8.65,-5.03 19.44,-5.03 28.09,0l438.19 253.33c8.65,5.02 14.04,14.28 14.04,24.32l0 506.73c0,10.03 -5.39,19.29 -14.04,24.32l-438.19 253.33c-8.65,5.03 -19.44,5.03 -28.09,0l-438.19 -253.33c-8.65,-5.02 -14.04,-14.28 -14.04,-24.32l0 -506.73c0,-10.03 5.39,-19.29 14.04,-24.32l438.19 -253.33z"/>
    <path class="fil1 str0" d="M120.76 4010.27c8.7,-5.03 19.42,-5.03 28.12,0l438.19 253.33c8.68,5.02 14.03,14.28 14.03,24.32l0 506.73c0,10.03 -5.35,19.29 -14.03,24.32l-438.19 253.33c-8.7,5.04 -19.42,5.04 -28.12,0l-438.19 -253.33c-8.68,-5.02 -14.03,-14.28 -14.03,-24.32l0 -506.73c0,-10.03 5.35,-19.29 14.03,-24.32l438.19 -253.33z"/>
    <path class="fil1 str0" d="M1053.32 4010.27c8.7,-5.03 19.42,-5.03 28.12,0l438.19 253.33c8.68,5.02 14.03,14.28 14.03,24.32l0 506.73c0,10.03 -5.35,19.29 -14.03,24.32l-438.19 253.33c-8.7,5.04 -19.42,5.04 -28.12,0l-438.19 -253.33c-8.68,-5.02 -14.03,-14.28 -14.03,-24.32l0 -506.73c0,-10.03 5.35,-19.29 14.03,-24.32l438.19 -253.33z"/>
    <path class="fil1 str0" d="M1985.87 4010.27c8.7,-5.03 19.42,-5.03 28.11,0l438.19 253.33c8.68,5.02 14.03,14.28 14.03,24.32l0 506.73c0,10.03 -5.35,19.29 -14.03,24.32l-438.19 253.33c-8.7,5.04 -19.42,5.04 -28.11,0l-438.19 -253.33c-8.68,-5.02 -14.03,-14.28 -14.03,-24.32l0 -506.73c0,-10.03 5.35,-19.29 14.03,-24.32l438.19 -253.33z"/>
    <path class="fil1 str0" d="M2918.43 4010.27c8.7,-5.03 19.42,-5.03 28.11,0l438.19 253.33c8.68,5.02 14.03,14.28 14.03,24.32l0 506.73c0,10.03 -5.35,19.29 -14.03,24.32l-438.19 253.33c-8.7,5.04 -19.42,5.04 -28.11,0l-438.19 -253.33c-8.68,-5.02 -14.03,-14.28 -14.03,-24.32l0 -506.73c0,-10.03 5.35,-19.29 14.03,-24.32l438.19 -253.33z"/>
    <path class="fil1 str0" d="M3850.98 4010.27c8.7,-5.03 19.42,-5.03 28.11,0l438.19 253.33c8.68,5.02 14.03,14.28 14.03,24.32l0 506.73c0,10.03 -5.35,19.29 -14.03,24.32l-438.19 253.33c-8.7,5.04 -19.42,5.04 -28.11,0l-438.19 -253.33c-8.68,-5.02 -14.03,-14.28 -14.03,-24.32l0 -506.73c0,-10.03 5.35,-19.29 14.03,-24.32l438.19 -253.33z"/>
    <path class="fil1 str0" d="M4783.53 4010.27c8.7,-5.03 19.42,-5.03 28.11,0l438.19 253.33c8.69,5.02 14.03,14.28 14.03,24.32l0 506.73c0,10.03 -5.35,19.29 -14.03,24.32l-438.19 253.33c-8.7,5.04 -19.42,5.04 -28.11,0l-438.19 -253.33c-8.68,-5.02 -14.03,-14.28 -14.03,-24.32l0 -506.73c0,-10.03 5.35,-19.29 14.03,-24.32l438.19 -253.33z"/>
    <path class="fil1 str0" d="M5716.08 4010.27c8.7,-5.03 19.42,-5.03 28.11,0l438.19 253.33c8.68,5.02 14.03,14.28 14.03,24.32l0 506.73c0,10.03 -5.35,19.29 -14.03,24.32l-438.19 253.33c-8.7,5.04 -19.42,5.04 -28.11,0l-438.19 -253.33c-8.69,-5.02 -14.03,-14.28 -14.03,-24.32l0 -506.73c0,-10.03 5.35,-19.29 14.03,-24.32l438.19 -253.33z"/>
    <path class="fil1 str0" d="M6648.64 4010.27c8.7,-5.03 19.42,-5.03 28.11,0l438.19 253.33c8.68,5.02 14.03,14.28 14.03,24.32l0 506.73c0,10.03 -5.35,19.29 -14.03,24.32l-438.19 253.33c-8.7,5.04 -19.42,5.04 -28.11,0l-438.19 -253.33c-8.68,-5.02 -14.03,-14.28 -14.03,-24.32l0 -506.73c0,-10.03 5.35,-19.29 14.03,-24.32l438.19 -253.33z"/>
    <path class="fil1 str0" d="M7581.19 4010.27c8.7,-5.03 19.42,-5.03 28.11,0l438.19 253.33c8.68,5.02 14.03,14.28 14.03,24.32l0 506.73c0,10.03 -5.35,19.29 -14.03,24.32l-438.19 253.33c-8.7,5.04 -19.42,5.04 -28.11,0l-438.19 -253.33c-8.68,-5.02 -14.03,-14.28 -14.03,-24.32l0 -506.73c0,-10.03 5.35,-19.29 14.03,-24.32l438.19 -253.33z"/>
    <path class="fil1 str0" d="M8513.74 4010.27c8.7,-5.03 19.42,-5.03 28.11,0l438.19 253.33c8.68,5.02 14.03,14.28 14.03,24.32l0 506.73c0,10.03 -5.35,19.29 -14.03,24.32l-438.19 253.33c-8.7,5.04 -19.42,5.04 -28.11,0l-438.19 -253.33c-8.68,-5.02 -14.03,-14.28 -14.03,-24.32l0 -506.73c0,-10.03 5.35,-19.29 14.03,-24.32l438.19 -253.33z"/>
    <path class="fil2 str0" style="mask:url(#id9)" d="M9446.3 4010.27c8.7,-5.03 19.42,-5.03 28.11,0l438.19 253.33c8.68,5.02 14.03,14.28 14.03,24.32l0 506.73c0,10.03 -5.35,19.29 -14.03,24.32l-438.19 253.33c-8.7,5.04 -19.42,5.04 -28.11,0l-438.19 -253.33c-8.68,-5.02 -14.03,-14.28 -14.03,-24.32l0 -506.73c0,-10.03 5.35,-19.29 14.03,-24.32l438.19 -253.33z"/>
    <path class="fil2 str0" style="mask:url(#id11)" d="M10378.85 4010.27c8.7,-5.03 19.42,-5.03 28.11,0l438.19 253.33c8.69,5.02 14.03,14.28 14.03,24.32l0 506.73c0,10.03 -5.35,19.29 -14.03,24.32l-438.19 253.33c-8.7,5.04 -19.42,5.04 -28.11,0l-438.19 -253.33c-8.68,-5.02 -14.03,-14.28 -14.03,-24.32l0 -506.73c0,-10.03 5.35,-19.29 14.03,-24.32l438.19 -253.33z"/>
    <path class="fil1 str0" d="M11311.41 4010.27c8.65,-5.03 19.44,-5.03 28.09,0l438.19 253.33c8.65,5.02 14.04,14.28 14.04,24.32l0 506.73c0,10.03 -5.39,19.29 -14.04,24.32l-438.19 253.33c-8.65,5.04 -19.44,5.04 -28.09,0l-438.2 -253.33c-8.69,-5.02 -14.03,-14.28 -14.03,-24.32l0 -506.73c0,-10.03 5.35,-19.29 14.03,-24.32l438.2 -253.33z"/>
    <path class="fil1 str0" d="M12243.97 4010.27c8.65,-5.03 19.44,-5.03 28.09,0l438.19 253.33c8.65,5.02 14.04,14.28 14.04,24.32l0 506.73c0,10.03 -5.39,19.29 -14.04,24.32l-438.19 253.33c-8.65,5.04 -19.44,5.04 -28.09,0l-438.19 -253.33c-8.65,-5.02 -14.04,-14.28 -14.04,-24.32l0 -506.73c0,-10.03 5.39,-19.29 14.04,-24.32l438.19 -253.33z"/>
    <path class="fil1 str0" d="M13176.52 4010.27c8.65,-5.03 19.44,-5.03 28.09,0l438.19 253.33c8.65,5.02 14.05,14.28 14.05,24.32l0 506.73c0,10.03 -5.39,19.29 -14.05,24.32l-438.19 253.33c-8.65,5.04 -19.44,5.04 -28.09,0l-438.19 -253.33c-8.65,-5.02 -14.05,-14.28 -14.05,-24.32l0 -506.73c0,-10.03 5.39,-19.29 14.05,-24.32l438.19 -253.33z"/>
    <path class="fil1 str0" d="M14109.07 4010.27c8.65,-5.03 19.44,-5.03 28.09,0l438.19 253.33c8.65,5.02 14.05,14.28 14.05,24.32l0 506.73c0,10.03 -5.39,19.29 -14.05,24.32l-438.19 253.33c-8.65,5.04 -19.44,5.04 -28.09,0l-438.19 -253.33c-8.65,-5.02 -14.04,-14.28 -14.04,-24.32l0 -506.73c0,-10.03 5.39,-19.29 14.04,-24.32l438.19 -253.33z"/>
    <path class="fil1 str0" d="M15041.62 4010.27c8.65,-5.03 19.44,-5.03 28.09,0l438.19 253.33c8.65,5.02 14.04,14.28 14.04,24.32l0 506.73c0,10.03 -5.39,19.29 -14.04,24.32l-438.19 253.33c-8.65,5.04 -19.44,5.04 -28.09,0l-438.19 -253.33c-8.65,-5.02 -14.04,-14.28 -14.04,-24.32l0 -506.73c0,-10.03 5.39,-19.29 14.04,-24.32l438.19 -253.33z"/>
    <path class="fil1 str0" d="M15974.18 4010.27c8.65,-5.03 19.44,-5.03 28.09,0l438.19 253.33c8.65,5.02 14.04,14.28 14.04,24.32l0 506.73c0,10.03 -5.39,19.29 -14.04,24.32l-438.19 253.33c-8.65,5.04 -19.44,5.04 -28.09,0l-438.19 -253.33c-8.65,-5.02 -14.04,-14.28 -14.04,-24.32l0 -506.73c0,-10.03 5.39,-19.29 14.04,-24.32l438.19 -253.33z"/>
    <path class="fil1 str0" d="M587.04 4809.4c8.7,-5.03 19.42,-5.03 28.12,0l438.19 253.33c8.68,5.02 14.03,14.28 14.03,24.31l0 506.74c0,10.03 -5.35,19.29 -14.03,24.32l-438.19 253.33c-8.7,5.04 -19.42,5.04 -28.12,0l-438.19 -253.33c-8.68,-5.02 -14.03,-14.28 -14.03,-24.32l0 -506.74c0,-10.03 5.35,-19.29 14.03,-24.31l438.19 -253.33z"/>
    <path class="fil1 str0" d="M1519.59 4809.4c8.7,-5.03 19.42,-5.03 28.11,0l438.19 253.33c8.68,5.02 14.03,14.28 14.03,24.31l0 506.74c0,10.03 -5.35,19.29 -14.03,24.32l-438.19 253.33c-8.7,5.04 -19.42,5.04 -28.11,0l-438.19 -253.33c-8.68,-5.02 -14.03,-14.28 -14.03,-24.32l0 -506.74c0,-10.03 5.35,-19.29 14.03,-24.31l438.19 -253.33z"/>
    <path class="fil1 str0" d="M2452.15 4809.4c8.69,-5.03 19.42,-5.03 28.11,0l438.19 253.33c8.68,5.02 14.03,14.28 14.03,24.31l0 506.74c0,10.03 -5.35,19.29 -14.03,24.32l-438.19 253.33c-8.69,5.04 -19.42,5.04 -28.11,0l-438.19 -253.33c-8.68,-5.02 -14.03,-14.28 -14.03,-24.32l0 -506.74c0,-10.03 5.35,-19.29 14.03,-24.31l438.19 -253.33z"/>
    <path class="fil1 str0" d="M3384.7 4809.4c8.7,-5.03 19.42,-5.03 28.11,0l438.19 253.33c8.68,5.02 14.03,14.28 14.03,24.31l0 506.74c0,10.03 -5.35,19.29 -14.03,24.32l-438.19 253.33c-8.7,5.04 -19.42,5.04 -28.11,0l-438.19 -253.33c-8.68,-5.02 -14.03,-14.28 -14.03,-24.32l0 -506.74c0,-10.03 5.35,-19.29 14.03,-24.31l438.19 -253.33z"/>
    <path class="fil1 str0" d="M4317.26 4809.4c8.7,-5.03 19.42,-5.03 28.11,0l438.19 253.33c8.68,5.02 14.03,14.28 14.03,24.31l0 506.74c0,10.03 -5.35,19.29 -14.03,24.32l-438.19 253.33c-8.7,5.04 -19.42,5.04 -28.11,0l-438.19 -253.33c-8.68,-5.02 -14.03,-14.28 -14.03,-24.32l0 -506.74c0,-10.03 5.35,-19.29 14.03,-24.31l438.19 -253.33z"/>
    <path class="fil1 str0" d="M5249.81 4809.4c8.7,-5.03 19.42,-5.03 28.11,0l438.19 253.33c8.69,5.02 14.03,14.28 14.03,24.31l0 506.74c0,10.03 -5.35,19.29 -14.03,24.32l-438.19 253.33c-8.7,5.04 -19.42,5.04 -28.11,0l-438.19 -253.33c-8.69,-5.02 -14.03,-14.28 -14.03,-24.32l0 -506.74c0,-10.03 5.35,-19.29 14.03,-24.31l438.19 -253.33z"/>
    <path class="fil1 str0" d="M6182.36 4809.4c8.7,-5.03 19.42,-5.03 28.11,0l438.19 253.33c8.68,5.02 14.03,14.28 14.03,24.31l0 506.74c0,10.03 -5.35,19.29 -14.03,24.32l-438.19 253.33c-8.7,5.04 -19.42,5.04 -28.11,0l-438.19 -253.33c-8.69,-5.02 -14.03,-14.28 -14.03,-24.32l0 -506.74c0,-10.03 5.35,-19.29 14.03,-24.31l438.19 -253.33z"/>
    <path class="fil1 str0" d="M7114.91 4809.4c8.7,-5.03 19.42,-5.03 28.11,0l438.19 253.33c8.68,5.02 14.03,14.28 14.03,24.31l0 506.74c0,10.03 -5.35,19.29 -14.03,24.32l-438.19 253.33c-8.7,5.04 -19.42,5.04 -28.11,0l-438.19 -253.33c-8.68,-5.02 -14.03,-14.28 -14.03,-24.32l0 -506.74c0,-10.03 5.35,-19.29 14.03,-24.31l438.19 -253.33z"/>
    <path class="fil1 str0" d="M8047.47 4809.4c8.69,-5.03 19.42,-5.03 28.11,0l438.19 253.33c8.68,5.02 14.03,14.28 14.03,24.31l0 506.74c0,10.03 -5.35,19.29 -14.03,24.32l-438.19 253.33c-8.69,5.04 -19.42,5.04 -28.11,0l-438.19 -253.33c-8.68,-5.02 -14.03,-14.28 -14.03,-24.32l0 -506.74c0,-10.03 5.35,-19.29 14.03,-24.31l438.19 -253.33z"/>
    <path class="fil1 str0" d="M8980.02 4809.4c8.7,-5.03 19.42,-5.03 28.11,0l438.19 253.33c8.68,5.02 14.03,14.28 14.03,24.31l0 506.74c0,10.03 -5.35,19.29 -14.03,24.32l-438.19 253.33c-8.7,5.04 -19.42,5.04 -28.11,0l-438.19 -253.33c-8.68,-5.02 -14.03,-14.28 -14.03,-24.32l0 -506.74c0,-10.03 5.35,-19.29 14.03,-24.31l438.19 -253.33z"/>
    <path class="fil1 str0" d="M9912.57 4809.4c8.7,-5.03 19.42,-5.03 28.11,0l438.19 253.33c8.69,5.02 14.03,14.28 14.03,24.31l0 506.74c0,10.03 -5.35,19.29 -14.03,24.32l-438.19 253.33c-8.7,5.04 -19.42,5.04 -28.11,0l-438.19 -253.33c-8.68,-5.02 -14.03,-14.28 -14.03,-24.32l0 -506.74c0,-10.03 5.35,-19.29 14.03,-24.31l438.19 -253.33z"/>
    <path class="fil1 str0" d="M10845.12 4809.4c8.7,-5.03 19.42,-5.03 28.11,0l438.18 253.33c8.65,5.02 14.04,14.28 14.04,24.31l0 506.74c0,10.03 -5.39,19.29 -14.04,24.32l-438.18 253.33c-8.7,5.04 -19.42,5.04 -28.11,0l-438.19 -253.33c-8.69,-5.02 -14.03,-14.28 -14.03,-24.32l0 -506.74c0,-10.03 5.35,-19.29 14.03,-24.31l438.19 -253.33z"/>
    <path class="fil1 str0" d="M11777.69 4809.4c8.65,-5.03 19.44,-5.03 28.09,0l438.19 253.33c8.65,5.02 14.04,14.28 14.04,24.31l0 506.74c0,10.03 -5.39,19.29 -14.04,24.32l-438.19 253.33c-8.65,5.04 -19.44,5.04 -28.09,0l-438.19 -253.33c-8.65,-5.02 -14.04,-14.28 -14.04,-24.32l0 -506.74c0,-10.03 5.39,-19.29 14.04,-24.31l438.19 -253.33z"/>
    <path class="fil1 str0" d="M12710.24 4809.4c8.65,-5.03 19.44,-5.03 28.09,0l438.19 253.33c8.65,5.02 14.04,14.28 14.04,24.31l0 506.74c0,10.03 -5.39,19.29 -14.04,24.32l-438.19 253.33c-8.65,5.04 -19.44,5.04 -28.09,0l-438.19 -253.33c-8.65,-5.02 -14.05,-14.28 -14.05,-24.32l0 -506.74c0,-10.03 5.39,-19.29 14.05,-24.31l438.19 -253.33z"/>
    <path class="fil1 str0" d="M13642.79 4809.4c8.65,-5.03 19.44,-5.03 28.09,0l438.19 253.33c8.65,5.02 14.05,14.28 14.05,24.31l0 506.74c0,10.03 -5.39,19.29 -14.05,24.32l-438.19 253.33c-8.65,5.04 -19.44,5.04 -28.09,0l-438.19 -253.33c-8.65,-5.02 -14.05,-14.28 -14.05,-24.32l0 -506.74c0,-10.03 5.39,-19.29 14.05,-24.31l438.19 -253.33z"/>
    <path class="fil1 str0" d="M14575.35 4809.4c8.65,-5.03 19.44,-5.03 28.09,0l438.19 253.33c8.65,5.02 14.05,14.28 14.05,24.31l0 506.74c0,10.03 -5.39,19.29 -14.05,24.32l-438.19 253.33c-8.65,5.04 -19.44,5.04 -28.09,0l-438.19 -253.33c-8.65,-5.02 -14.04,-14.28 -14.04,-24.32l0 -506.74c0,-10.03 5.39,-19.29 14.04,-24.31l438.19 -253.33z"/>
    <path class="fil1 str0" d="M15507.9 4809.4c8.65,-5.03 19.44,-5.03 28.09,0l438.19 253.33c8.65,5.02 14.04,14.28 14.04,24.31l0 506.74c0,10.03 -5.39,19.29 -14.04,24.32l-438.19 253.33c-8.65,5.04 -19.44,5.04 -28.09,0l-438.19 -253.33c-8.65,-5.02 -14.04,-14.28 -14.04,-24.32l0 -506.74c0,-10.03 5.39,-19.29 14.04,-24.31l438.19 -253.33z"/>
    <path class="fil1 str0" d="M16440.45 4809.4c8.65,-5.03 19.44,-5.03 28.09,0l438.19 253.33c8.65,5.02 14.04,14.28 14.04,24.31l0 506.74c0,10.03 -5.39,19.29 -14.04,24.32l-438.19 253.33c-8.65,5.04 -19.44,5.04 -28.09,0l-438.19 -253.33c-8.65,-5.02 -14.04,-14.28 -14.04,-24.32l0 -506.74c0,-10.03 5.39,-19.29 14.04,-24.31l438.19 -253.33z"/>
    <path class="fil1 str0" d="M120.76 5608.53c8.7,-5.03 19.42,-5.03 28.12,0l438.19 253.33c8.68,5.02 14.03,14.28 14.03,24.31l0 506.74c0,10.03 -5.35,19.29 -14.03,24.32l-438.19 253.33c-8.7,5.04 -19.42,5.04 -28.12,0l-438.19 -253.33c-8.68,-5.02 -14.03,-14.28 -14.03,-24.32l0 -506.74c0,-10.03 5.35,-19.29 14.03,-24.31l438.19 -253.33z"/>
    <path class="fil1 str0" d="M1053.32 5608.53c8.7,-5.03 19.42,-5.03 28.12,0l438.19 253.33c8.68,5.02 14.03,14.28 14.03,24.31l0 506.74c0,10.03 -5.35,19.29 -14.03,24.32l-438.19 253.33c-8.7,5.04 -19.42,5.04 -28.12,0l-438.19 -253.33c-8.68,-5.02 -14.03,-14.28 -14.03,-24.32l0 -506.74c0,-10.03 5.35,-19.29 14.03,-24.31l438.19 -253.33z"/>
    <path class="fil1 str0" d="M1985.87 5608.53c8.7,-5.03 19.42,-5.03 28.11,0l438.19 253.33c8.68,5.02 14.03,14.28 14.03,24.31l0 506.74c0,10.03 -5.35,19.29 -14.03,24.32l-438.19 253.33c-8.7,5.04 -19.42,5.04 -28.11,0l-438.19 -253.33c-8.68,-5.02 -14.03,-14.28 -14.03,-24.32l0 -506.74c0,-10.03 5.35,-19.29 14.03,-24.31l438.19 -253.33z"/>
    <path class="fil1 str0" d="M2918.43 5608.53c8.7,-5.03 19.42,-5.03 28.11,0l438.19 253.33c8.68,5.02 14.03,14.28 14.03,24.31l0 506.74c0,10.03 -5.35,19.29 -14.03,24.32l-438.19 253.33c-8.7,5.04 -19.42,5.04 -28.11,0l-438.19 -253.33c-8.68,-5.02 -14.03,-14.28 -14.03,-24.32l0 -506.74c0,-10.03 5.35,-19.29 14.03,-24.31l438.19 -253.33z"/>
    <path class="fil1 str0" d="M3850.98 5608.53c8.7,-5.03 19.42,-5.03 28.11,0l438.19 253.33c8.68,5.02 14.03,14.28 14.03,24.31l0 506.74c0,10.03 -5.35,19.29 -14.03,24.32l-438.19 253.33c-8.7,5.04 -19.42,5.04 -28.11,0l-438.19 -253.33c-8.68,-5.02 -14.03,-14.28 -14.03,-24.32l0 -506.74c0,-10.03 5.35,-19.29 14.03,-24.31l438.19 -253.33z"/>
    <path class="fil1 str0" d="M4783.53 5608.53c8.7,-5.03 19.42,-5.03 28.11,0l438.19 253.33c8.69,5.02 14.03,14.28 14.03,24.31l0 506.74c0,10.03 -5.35,19.29 -14.03,24.32l-438.19 253.33c-8.7,5.04 -19.42,5.04 -28.11,0l-438.19 -253.33c-8.68,-5.02 -14.03,-14.28 -14.03,-24.32l0 -506.74c0,-10.03 5.35,-19.29 14.03,-24.31l438.19 -253.33z"/>
    <path class="fil1 str0" d="M5716.08 5608.53c8.7,-5.03 19.42,-5.03 28.11,0l438.19 253.33c8.68,5.02 14.03,14.28 14.03,24.31l0 506.74c0,10.03 -5.35,19.29 -14.03,24.32l-438.19 253.33c-8.7,5.04 -19.42,5.04 -28.11,0l-438.19 -253.33c-8.69,-5.02 -14.03,-14.28 -14.03,-24.32l0 -506.74c0,-10.03 5.35,-19.29 14.03,-24.31l438.19 -253.33z"/>
    <path class="fil1 str0" d="M6648.64 5608.53c8.7,-5.03 19.42,-5.03 28.11,0l438.19 253.33c8.68,5.02 14.03,14.28 14.03,24.31l0 506.74c0,10.03 -5.35,19.29 -14.03,24.32l-438.19 253.33c-8.7,5.04 -19.42,5.04 -28.11,0l-438.19 -253.33c-8.68,-5.02 -14.03,-14.28 -14.03,-24.32l0 -506.74c0,-10.03 5.35,-19.29 14.03,-24.31l438.19 -253.33z"/>
    <path class="fil1 str0" d="M7581.19 5608.53c8.7,-5.03 19.42,-5.03 28.11,0l438.19 253.33c8.68,5.02 14.03,14.28 14.03,24.31l0 506.74c0,10.03 -5.35,19.29 -14.03,24.32l-438.19 253.33c-8.7,5.04 -19.42,5.04 -28.11,0l-438.19 -253.33c-8.68,-5.02 -14.03,-14.28 -14.03,-24.32l0 -506.74c0,-10.03 5.35,-19.29 14.03,-24.31l438.19 -253.33z"/>
    <path class="fil1 str0" d="M8513.74 5608.53c8.7,-5.03 19.42,-5.03 28.11,0l438.19 253.33c8.68,5.02 14.03,14.28 14.03,24.31l0 506.74c0,10.03 -5.35,19.29 -14.03,24.32l-438.19 253.33c-8.7,5.04 -19.42,5.04 -28.11,0l-438.19 -253.33c-8.68,-5.02 -14.03,-14.28 -14.03,-24.32l0 -506.74c0,-10.03 5.35,-19.29 14.03,-24.31l438.19 -253.33z"/>
    <path class="fil1 str0" d="M9446.3 5608.53c8.7,-5.03 19.42,-5.03 28.11,0l438.19 253.33c8.68,5.02 14.03,14.28 14.03,24.31l0 506.74c0,10.03 -5.35,19.29 -14.03,24.32l-438.19 253.33c-8.7,5.04 -19.42,5.04 -28.11,0l-438.19 -253.33c-8.68,-5.02 -14.03,-14.28 -14.03,-24.32l0 -506.74c0,-10.03 5.35,-19.29 14.03,-24.31l438.19 -253.33z"/>
    <path class="fil1 str0" d="M10378.85 5608.53c8.7,-5.03 19.42,-5.03 28.11,0l438.19 253.33c8.69,5.02 14.03,14.28 14.03,24.31l0 506.74c0,10.03 -5.35,19.29 -14.03,24.32l-438.19 253.33c-8.7,5.04 -19.42,5.04 -28.11,0l-438.19 -253.33c-8.68,-5.02 -14.03,-14.28 -14.03,-24.32l0 -506.74c0,-10.03 5.35,-19.29 14.03,-24.31l438.19 -253.33z"/>
    <path class="fil1 str0" d="M11311.41 5608.53c8.65,-5.03 19.44,-5.03 28.09,0l438.19 253.33c8.65,5.02 14.04,14.28 14.04,24.31l0 506.74c0,10.03 -5.39,19.29 -14.04,24.32l-438.19 253.33c-8.65,5.04 -19.44,5.04 -28.09,0l-438.2 -253.33c-8.69,-5.02 -14.03,-14.28 -14.03,-24.32l0 -506.74c0,-10.03 5.35,-19.29 14.03,-24.31l438.2 -253.33z"/>
    <path class="fil1 str0" d="M12243.97 5608.53c8.65,-5.03 19.44,-5.03 28.09,0l438.19 253.33c8.65,5.02 14.04,14.28 14.04,24.31l0 506.74c0,10.03 -5.39,19.29 -14.04,24.32l-438.19 253.33c-8.65,5.04 -19.44,5.04 -28.09,0l-438.19 -253.33c-8.65,-5.02 -14.04,-14.28 -14.04,-24.32l0 -506.74c0,-10.03 5.39,-19.29 14.04,-24.31l438.19 -253.33z"/>
    <path class="fil1 str0" d="M13176.52 5608.53c8.65,-5.03 19.44,-5.03 28.09,0l438.19 253.33c8.65,5.02 14.05,14.28 14.05,24.31l0 506.74c0,10.03 -5.39,19.29 -14.05,24.32l-438.19 253.33c-8.65,5.04 -19.44,5.04 -28.09,0l-438.19 -253.33c-8.65,-5.02 -14.05,-14.28 -14.05,-24.32l0 -506.74c0,-10.03 5.39,-19.29 14.05,-24.31l438.19 -253.33z"/>
    <path class="fil1 str0" d="M14109.07 5608.53c8.65,-5.03 19.44,-5.03 28.09,0l438.19 253.33c8.65,5.02 14.05,14.28 14.05,24.31l0 506.74c0,10.03 -5.39,19.29 -14.05,24.32l-438.19 253.33c-8.65,5.04 -19.44,5.04 -28.09,0l-438.19 -253.33c-8.65,-5.02 -14.04,-14.28 -14.04,-24.32l0 -506.74c0,-10.03 5.39,-19.29 14.04,-24.31l438.19 -253.33z"/>
    <path class="fil1 str0" d="M15041.62 5608.53c8.65,-5.03 19.44,-5.03 28.09,0l438.19 253.33c8.65,5.02 14.04,14.28 14.04,24.31l0 506.74c0,10.03 -5.39,19.29 -14.04,24.32l-438.19 253.33c-8.65,5.04 -19.44,5.04 -28.09,0l-438.19 -253.33c-8.65,-5.02 -14.04,-14.28 -14.04,-24.32l0 -506.74c0,-10.03 5.39,-19.29 14.04,-24.31l438.19 -253.33z"/>
    <path class="fil1 str0" d="M15974.18 5608.53c8.65,-5.03 19.44,-5.03 28.09,0l438.19 253.33c8.65,5.02 14.04,14.28 14.04,24.31l0 506.74c0,10.03 -5.39,19.29 -14.04,24.32l-438.19 253.33c-8.65,5.04 -19.44,5.04 -28.09,0l-438.19 -253.33c-8.65,-5.02 -14.04,-14.28 -14.04,-24.32l0 -506.74c0,-10.03 5.39,-19.29 14.04,-24.31l438.19 -253.33z"/>
    <path class="fil1 str0" d="M587.04 6407.66c8.7,-5.03 19.42,-5.03 28.12,0l438.19 253.33c8.68,5.02 14.03,14.28 14.03,24.31l0 506.74c0,10.03 -5.35,19.29 -14.03,24.32l-438.19 253.33c-8.7,5.04 -19.42,5.04 -28.12,0l-438.19 -253.33c-8.68,-5.02 -14.03,-14.28 -14.03,-24.32l0 -506.74c0,-10.03 5.35,-19.29 14.03,-24.31l438.19 -253.33z"/>
    <path class="fil1 str0" d="M1519.59 6407.66c8.7,-5.03 19.42,-5.03 28.11,0l438.19 253.33c8.68,5.02 14.03,14.28 14.03,24.31l0 506.74c0,10.03 -5.35,19.29 -14.03,24.32l-438.19 253.33c-8.7,5.04 -19.42,5.04 -28.11,0l-438.19 -253.33c-8.68,-5.02 -14.03,-14.28 -14.03,-24.32l0 -506.74c0,-10.03 5.35,-19.29 14.03,-24.31l438.19 -253.33z"/>
    <path class="fil1 str0" d="M2452.15 6407.66c8.69,-5.03 19.42,-5.03 28.11,0l438.19 253.33c8.68,5.02 14.03,14.28 14.03,24.31l0 506.74c0,10.03 -5.35,19.29 -14.03,24.32l-438.19 253.33c-8.69,5.04 -19.42,5.04 -28.11,0l-438.19 -253.33c-8.68,-5.02 -14.03,-14.28 -14.03,-24.32l0 -506.74c0,-10.03 5.35,-19.29 14.03,-24.31l438.19 -253.33z"/>
    <path class="fil1 str0" d="M3384.7 6407.66c8.7,-5.03 19.42,-5.03 28.11,0l438.19 253.33c8.68,5.02 14.03,14.28 14.03,24.31l0 506.74c0,10.03 -5.35,19.29 -14.03,24.32l-438.19 253.33c-8.7,5.04 -19.42,5.04 -28.11,0l-438.19 -253.33c-8.68,-5.02 -14.03,-14.28 -14.03,-24.32l0 -506.74c0,-10.03 5.35,-19.29 14.03,-24.31l438.19 -253.33z"/>
    <path class="fil1 str0" d="M4317.26 6407.66c8.7,-5.03 19.42,-5.03 28.11,0l438.19 253.33c8.68,5.02 14.03,14.28 14.03,24.31l0 506.74c0,10.03 -5.35,19.29 -14.03,24.32l-438.19 253.33c-8.7,5.04 -19.42,5.04 -28.11,0l-438.19 -253.33c-8.68,-5.02 -14.03,-14.28 -14.03,-24.32l0 -506.74c0,-10.03 5.35,-19.29 14.03,-24.31l438.19 -253.33z"/>
    <path class="fil1 str0" d="M5249.81 6407.66c8.7,-5.03 19.42,-5.03 28.11,0l438.19 253.33c8.69,5.02 14.03,14.28 14.03,24.31l0 506.74c0,10.03 -5.35,19.29 -14.03,24.32l-438.19 253.33c-8.7,5.04 -19.42,5.04 -28.11,0l-438.19 -253.33c-8.69,-5.02 -14.03,-14.28 -14.03,-24.32l0 -506.74c0,-10.03 5.35,-19.29 14.03,-24.31l438.19 -253.33z"/>
    <path class="fil1 str0" d="M6182.36 6407.66c8.7,-5.03 19.42,-5.03 28.11,0l438.19 253.33c8.68,5.02 14.03,14.28 14.03,24.31l0 506.74c0,10.03 -5.35,19.29 -14.03,24.32l-438.19 253.33c-8.7,5.04 -19.42,5.04 -28.11,0l-438.19 -253.33c-8.69,-5.02 -14.03,-14.28 -14.03,-24.32l0 -506.74c0,-10.03 5.35,-19.29 14.03,-24.31l438.19 -253.33z"/>
    <path class="fil1 str0" d="M7114.91 6407.66c8.7,-5.03 19.42,-5.03 28.11,0l438.19 253.33c8.68,5.02 14.03,14.28 14.03,24.31l0 506.74c0,10.03 -5.35,19.29 -14.03,24.32l-438.19 253.33c-8.7,5.04 -19.42,5.04 -28.11,0l-438.19 -253.33c-8.68,-5.02 -14.03,-14.28 -14.03,-24.32l0 -506.74c0,-10.03 5.35,-19.29 14.03,-24.31l438.19 -253.33z"/>
    <path class="fil1 str0" d="M8047.47 6407.66c8.69,-5.03 19.42,-5.03 28.11,0l438.19 253.33c8.68,5.02 14.03,14.28 14.03,24.31l0 506.74c0,10.03 -5.35,19.29 -14.03,24.32l-438.19 253.33c-8.69,5.04 -19.42,5.04 -28.11,0l-438.19 -253.33c-8.68,-5.02 -14.03,-14.28 -14.03,-24.32l0 -506.74c0,-10.03 5.35,-19.29 14.03,-24.31l438.19 -253.33z"/>
    <path class="fil1 str0" d="M8980.02 6407.66c8.7,-5.03 19.42,-5.03 28.11,0l438.19 253.33c8.68,5.02 14.03,14.28 14.03,24.31l0 506.74c0,10.03 -5.35,19.29 -14.03,24.32l-438.19 253.33c-8.7,5.04 -19.42,5.04 -28.11,0l-438.19 -253.33c-8.68,-5.02 -14.03,-14.28 -14.03,-24.32l0 -506.74c0,-10.03 5.35,-19.29 14.03,-24.31l438.19 -253.33z"/>
    <path class="fil1 str0" d="M9912.57 6407.66c8.7,-5.03 19.42,-5.03 28.11,0l438.19 253.33c8.69,5.02 14.03,14.28 14.03,24.31l0 506.74c0,10.03 -5.35,19.29 -14.03,24.32l-438.19 253.33c-8.7,5.04 -19.42,5.04 -28.11,0l-438.19 -253.33c-8.68,-5.02 -14.03,-14.28 -14.03,-24.32l0 -506.74c0,-10.03 5.35,-19.29 14.03,-24.31l438.19 -253.33z"/>
    <path class="fil1 str0" d="M10845.12 6407.66c8.7,-5.03 19.42,-5.03 28.11,0l438.18 253.33c8.65,5.02 14.04,14.28 14.04,24.31l0 506.74c0,10.03 -5.39,19.29 -14.04,24.32l-438.18 253.33c-8.7,5.04 -19.42,5.04 -28.11,0l-438.19 -253.33c-8.69,-5.02 -14.03,-14.28 -14.03,-24.32l0 -506.74c0,-10.03 5.35,-19.29 14.03,-24.31l438.19 -253.33z"/>
    <path class="fil1 str0" d="M11777.69 6407.66c8.65,-5.03 19.44,-5.03 28.09,0l438.19 253.33c8.65,5.02 14.04,14.28 14.04,24.31l0 506.74c0,10.03 -5.39,19.29 -14.04,24.32l-438.19 253.33c-8.65,5.04 -19.44,5.04 -28.09,0l-438.19 -253.33c-8.65,-5.02 -14.04,-14.28 -14.04,-24.32l0 -506.74c0,-10.03 5.39,-19.29 14.04,-24.31l438.19 -253.33z"/>
    <path class="fil1 str0" d="M12710.24 6407.66c8.65,-5.03 19.44,-5.03 28.09,0l438.19 253.33c8.65,5.02 14.04,14.28 14.04,24.31l0 506.74c0,10.03 -5.39,19.29 -14.04,24.32l-438.19 253.33c-8.65,5.04 -19.44,5.04 -28.09,0l-438.19 -253.33c-8.65,-5.02 -14.05,-14.28 -14.05,-24.32l0 -506.74c0,-10.03 5.39,-19.29 14.05,-24.31l438.19 -253.33z"/>
    <path class="fil1 str0" d="M13642.79 6407.66c8.65,-5.03 19.44,-5.03 28.09,0l438.19 253.33c8.65,5.02 14.05,14.28 14.05,24.31l0 506.74c0,10.03 -5.39,19.29 -14.05,24.32l-438.19 253.33c-8.65,5.04 -19.44,5.04 -28.09,0l-438.19 -253.33c-8.65,-5.02 -14.05,-14.28 -14.05,-24.32l0 -506.74c0,-10.03 5.39,-19.29 14.05,-24.31l438.19 -253.33z"/>
    <path class="fil1 str0" d="M14575.35 6407.66c8.65,-5.03 19.44,-5.03 28.09,0l438.19 253.33c8.65,5.02 14.05,14.28 14.05,24.31l0 506.74c0,10.03 -5.39,19.29 -14.05,24.32l-438.19 253.33c-8.65,5.04 -19.44,5.04 -28.09,0l-438.19 -253.33c-8.65,-5.02 -14.04,-14.28 -14.04,-24.32l0 -506.74c0,-10.03 5.39,-19.29 14.04,-24.31l438.19 -253.33z"/>
    <path class="fil1 str0" d="M15507.9 6407.66c8.65,-5.03 19.44,-5.03 28.09,0l438.19 253.33c8.65,5.02 14.04,14.28 14.04,24.31l0 506.74c0,10.03 -5.39,19.29 -14.04,24.32l-438.19 253.33c-8.65,5.04 -19.44,5.04 -28.09,0l-438.19 -253.33c-8.65,-5.02 -14.04,-14.28 -14.04,-24.32l0 -506.74c0,-10.03 5.39,-19.29 14.04,-24.31l438.19 -253.33z"/>
    <path class="fil1 str0" d="M16440.45 6407.66c8.65,-5.03 19.44,-5.03 28.09,0l438.19 253.33c8.65,5.02 14.04,14.28 14.04,24.31l0 506.74c0,10.03 -5.39,19.29 -14.04,24.32l-438.19 253.33c-8.65,5.04 -19.44,5.04 -28.09,0l-438.19 -253.33c-8.65,-5.02 -14.04,-14.28 -14.04,-24.32l0 -506.74c0,-10.03 5.39,-19.29 14.04,-24.31l438.19 -253.33z"/>
   </g>
  </g>
  <polygon class="fil3" points="-0,7078.41 16325.28,7078.41 16325.28,0 -0,0 "/>
 </g>
</svg>
